<svg fill="#000000" viewBox="0 0 24 24" id="note-alt" data-name="Flat Line" xmlns="http://www.w3.org/2000/svg"
     class="icon flat-line">
    <g id="SVGRepo_bgCarrier" stroke-width="0"></g>
    <g id="SVGRepo_tracerCarrier" stroke-linecap="round" stroke-linejoin="round"></g>
    <g id="SVGRepo_iconCarrier">
        <path id="secondary"
              d="M18,4H15V5a1,1,0,0,1-1,1H10A1,1,0,0,1,9,5V4H6A1,1,0,0,0,5,5V20a1,1,0,0,0,1,1H18a1,1,0,0,0,1-1V5A1,1,0,0,0,18,4Z"
              style="fill: #ffd747; stroke-width: 2;"></path>
        <path id="primary" d="M14,6H10A1,1,0,0,1,9,5V4a1,1,0,0,1,1-1h4a1,1,0,0,1,1,1V5A1,1,0,0,1,14,6ZM9,11h6M9,15h6"
              style="fill: none; stroke: #000000; stroke-linecap: round; stroke-linejoin: round; stroke-width: 2;"></path>
        <path id="primary-2" data-name="primary"
              d="M18,4a1,1,0,0,1,1,1V20a1,1,0,0,1-1,1H6a1,1,0,0,1-1-1V5A1,1,0,0,1,6,4"
              style="fill: none; stroke: #000000; stroke-linecap: round; stroke-linejoin: round; stroke-width: 1;"></path>
    </g>
</svg>